<svg width="100" height="100" viewBox="0 0 100 100" fill="none" xmlns="http://www.w3.org/2000/svg">
<g clip-path="url(#clip0_1_606)">
<path opacity="0.949" fill-rule="evenodd" clip-rule="evenodd" d="M99.9023 54.3945C99.9023 56.9986 99.9023 59.6029 99.9023 62.207C99.2197 68.8441 97.0062 74.9314 93.2617 80.4688C91.9789 81.2129 90.9047 80.985 90.0391 79.7852C89.9088 79.1992 89.9088 78.6133 90.0391 78.0273C96.2305 68.0742 97.4674 57.5273 93.75 46.3867C88.6592 33.6803 79.3818 26.0305 65.918 23.4375C51.7598 21.8117 40.334 26.5969 31.6406 37.793C24.3352 48.7127 23.0982 60.3012 27.9297 72.5586C34.5021 86.0877 45.342 93.184 60.4492 93.8477C64.9605 93.8336 69.3225 93.0197 73.5352 91.4062C76.0271 90.274 78.4686 89.0697 80.8594 87.793C82.5209 88.0885 83.1719 89.065 82.8125 90.7227C82.6592 91.0715 82.4314 91.3645 82.1289 91.6016C70.3217 98.7941 57.952 99.901 45.0195 94.9219C34.8443 90.4434 27.6828 83.0541 23.5352 72.7539C18.7188 72.5912 13.9011 72.4936 9.08203 72.4609C7.80145 71.9365 7.37826 70.9924 7.8125 69.6289C8.04037 69.1406 8.39844 68.7826 8.88672 68.5547C13.3152 68.5221 17.7423 68.4244 22.168 68.2617C21.5594 65.8893 21.1688 63.4805 20.9961 61.0352C17.8053 61.0678 14.6152 61.0352 11.4258 60.9375C10.4933 60.2236 10.2003 59.2797 10.5469 58.1055C10.7747 57.7475 11.0677 57.4545 11.4258 57.2266C14.6152 57.1289 17.8053 57.0963 20.9961 57.1289C21.0707 54.6344 21.3311 52.1604 21.7773 49.707C14.876 49.7396 7.97496 49.707 1.07422 49.6094C0.581522 49.3438 0.190897 48.9857 -0.0976562 48.5352C-0.0976562 47.9492 -0.0976562 47.3633 -0.0976562 46.7773C0.204301 46.25 0.660029 45.892 1.26953 45.7031C8.5609 45.6055 15.8526 45.5729 23.1445 45.6055C23.8643 43.124 24.9059 40.7803 26.2695 38.5742C22.2248 38.4676 18.1883 38.3049 14.1602 38.0859C13.1426 37.2812 12.9147 36.2723 13.4766 35.0586C13.7137 34.7561 14.0066 34.5283 14.3555 34.375C19.3034 34.31 24.2514 34.2447 29.1992 34.1797C34.96 26.8699 42.3818 22.1174 51.4648 19.9219C51.6891 18.3423 51.7217 16.7472 51.5625 15.1367C47.7146 13.6268 46.1521 10.8273 46.875 6.73828C47.7074 4.27818 49.3676 2.68315 51.8555 1.95313C57.5195 1.82292 63.1836 1.82292 68.8477 1.95313C72.8592 3.1699 74.5844 5.87172 74.0234 10.0586C73.4359 12.6968 71.8408 14.3244 69.2383 14.9414C69.1764 16.6182 69.2416 18.2783 69.4336 19.9219C82.9023 23.3639 92.2447 31.5346 97.4609 44.4336C98.6188 47.6971 99.4326 51.0174 99.9023 54.3945ZM52.6367 5.95703C57.8455 5.92449 63.0537 5.95703 68.2617 6.05469C69.7264 6.73816 70.2799 7.87748 69.9219 9.47266C69.4697 10.3158 68.7861 10.8692 67.8711 11.1328C62.858 11.263 57.8451 11.263 52.832 11.1328C50.9496 10.3318 50.3961 8.99719 51.1719 7.12891C51.5848 6.61703 52.073 6.22641 52.6367 5.95703ZM55.7617 15.332C58.8867 15.332 62.0117 15.332 65.1367 15.332C65.2012 16.6406 65.1361 17.9427 64.9414 19.2383C61.9467 18.7174 58.9518 18.7174 55.957 19.2383C55.7623 17.9427 55.6973 16.6406 55.7617 15.332ZM60.0586 56.3477C62.198 56.6213 62.8816 57.7281 62.1094 59.668C61.2891 60.491 60.3449 60.6539 59.2773 60.1562C57.9371 58.5809 58.1977 57.3113 60.0586 56.3477Z" fill="#1D56EB"/>
<path opacity="0.944" fill-rule="evenodd" clip-rule="evenodd" d="M58.3004 28.027C70.675 27.6862 80.1476 32.6993 86.7183 43.0661C92.3929 53.6243 92.2627 64.1059 86.3277 74.5114C79.3677 84.843 69.6347 89.5631 57.1285 88.6715C44.4275 86.7325 35.8664 79.7338 31.4449 67.6755C27.9968 54.6503 31.2845 43.6801 41.3082 34.7653C46.3146 30.8506 51.9787 28.6046 58.3004 28.027ZM58.4957 32.1286C69.4105 31.904 77.7113 36.3962 83.398 45.6051C88.4394 55.6811 87.7232 65.3167 81.2496 74.5114C72.7427 84.3126 62.3586 87.0143 50.0972 82.6169C40.0535 77.7385 34.715 69.6981 34.0816 58.4958C34.8011 46.1424 40.9211 37.7764 52.441 33.3981C54.4519 32.8073 56.4701 32.3842 58.4957 32.1286ZM60.0582 56.3473C58.1972 57.311 57.9367 58.5805 59.2769 60.1559C60.3445 60.6536 61.2886 60.4907 62.109 59.6676C62.8812 57.7278 62.1976 56.621 60.0582 56.3473Z" fill="#1D56EB"/>
<path opacity="0.91" fill-rule="evenodd" clip-rule="evenodd" d="M60.0586 35.4492C61.9752 35.5316 62.8217 36.5408 62.5976 38.4766C62.7385 40.8123 61.6967 41.7238 59.4726 41.2109C59.1146 40.983 58.8217 40.69 58.5937 40.332C58.4635 39.0951 58.4635 37.858 58.5937 36.6211C59.0057 36.109 59.4939 35.7184 60.0586 35.4492Z" fill="#1D56EB"/>
<path opacity="0.945" fill-rule="evenodd" clip-rule="evenodd" d="M73.5357 42.6758C75.7142 42.6717 76.5279 43.7135 75.9771 45.8008C72.7219 49.0561 69.4668 52.3111 66.2115 55.5664C66.975 57.8893 66.7146 60.1029 65.4303 62.207C62.7572 64.9024 59.7949 65.2606 56.5435 63.2813C55.1346 61.9606 54.3533 60.333 54.1998 58.3984C54.3824 57.4432 54.5451 56.4992 54.6881 55.5664C53.2558 54.1342 51.8234 52.7018 50.3912 51.2695C49.6015 49.4633 50.1549 48.3565 52.0513 47.9492C52.5283 48.0539 52.984 48.2166 53.4185 48.4375C54.8861 49.9377 56.3836 51.4026 57.9107 52.832C59.6035 52.0508 61.2961 52.0508 62.9888 52.832C66.4545 49.366 69.9701 45.9805 73.5357 42.6758ZM60.0592 56.3477C58.1982 57.3113 57.9377 58.5809 59.2779 60.1563C60.3455 60.6539 61.2896 60.491 62.1099 59.668C62.8822 57.7281 62.1986 56.6213 60.0592 56.3477Z" fill="#1D56EB"/>
<path opacity="0.913" fill-rule="evenodd" clip-rule="evenodd" d="M38.9645 56.3474C40.1545 56.2769 41.3264 56.3745 42.4801 56.6403C43.8551 58.0337 43.725 59.2708 42.0895 60.3513C40.8309 60.53 39.594 60.4647 38.3786 60.156C37.6444 59.4249 37.4164 58.546 37.695 57.5192C37.9868 56.9696 38.4098 56.579 38.9645 56.3474Z" fill="#1D56EB"/>
<path opacity="0.916" fill-rule="evenodd" clip-rule="evenodd" d="M79.2001 56.3474C80.4418 56.2218 81.6136 56.4171 82.7158 56.9333C83.3763 57.7677 83.474 58.679 83.0087 59.6677C82.7716 59.9703 82.4787 60.198 82.1298 60.3513C80.8064 60.531 79.5043 60.4658 78.2236 60.156C76.98 58.4648 77.3054 57.1953 79.2001 56.3474Z" fill="#1D56EB"/>
<path opacity="0.899" fill-rule="evenodd" clip-rule="evenodd" d="M-0.0976562 71.3867C-0.0976562 70.8007 -0.0976562 70.2148 -0.0976562 69.6288C0.959117 68.2542 2.16354 68.124 3.51562 69.2382C4.24875 71.8253 3.30473 72.8343 0.683594 72.2656C0.376904 71.9927 0.116487 71.6997 -0.0976562 71.3867Z" fill="#1D56EB"/>
<path opacity="0.911" fill-rule="evenodd" clip-rule="evenodd" d="M59.668 75.4884C60.8574 75.2222 61.7363 75.6128 62.3047 76.6603C62.435 77.8321 62.435 79.004 62.3047 80.1759C61.7346 81.255 60.8557 81.613 59.668 81.2501C59.2531 81.031 58.8951 80.738 58.5937 80.3712C58.2031 79.0691 58.2031 77.7671 58.5937 76.465C58.9316 76.0935 59.2896 75.7679 59.668 75.4884Z" fill="#1D56EB"/>
<path opacity="0.879" fill-rule="evenodd" clip-rule="evenodd" d="M86.2305 82.9102C88.8842 82.9777 89.6004 84.1822 88.3789 86.5234C86.5342 87.4889 85.3623 86.968 84.8633 84.9609C84.9754 84.0373 85.4311 83.3537 86.2305 82.9102Z" fill="#1D56EB"/>
</g>
<defs>
<clipPath id="clip0_1_606">
<rect width="100" height="100" fill="white"/>
</clipPath>
</defs>
</svg>
