<svg width="100" height="100" viewBox="0 0 100 100" fill="none" xmlns="http://www.w3.org/2000/svg">
<g clip-path="url(#clip0_1_662)">
<path opacity="0.953" fill-rule="evenodd" clip-rule="evenodd" d="M99.9023 29.5898C99.9023 50.0976 99.9023 70.6054 99.9023 91.1132C99.1871 93.0316 97.8199 94.2361 95.8008 94.7265C67.3502 94.8568 38.8998 94.8568 10.4492 94.7265C4.74705 93.7435 1.23142 90.4558 -0.0976562 84.8632C-0.0976562 61.556 -0.0976562 38.2486 -0.0976562 14.9413C1.37111 8.91744 5.21225 5.59713 11.4258 4.98039C12.3037 4.91491 12.9872 5.24041 13.4766 5.95696C13.5742 12.5322 13.6068 19.1077 13.5742 25.6835C16.5697 25.6509 19.5645 25.6835 22.5586 25.7812C23.8193 26.1361 24.2424 26.9499 23.8281 28.2226C23.5084 28.6738 23.0852 28.9667 22.5586 29.1015C19.5645 29.1991 16.5697 29.2318 13.5742 29.1991C13.6068 43.8478 13.5742 58.4962 13.4766 73.1445C13.2487 73.3724 13.0208 73.6001 12.793 73.828C7.17098 74.2101 3.98088 77.1724 3.22266 82.7148C3.61166 87.1722 5.95541 90.0042 10.2539 91.2109C38.7852 91.4056 67.3008 91.3404 95.8008 91.0155C96.1889 90.7579 96.4168 90.3999 96.4844 89.9413C96.6146 70.1497 96.6146 50.3579 96.4844 30.5663C96.4168 30.1077 96.1889 29.7497 95.8008 29.4921C95.1594 29.2724 94.5084 29.0771 93.8477 28.9062C92.8061 27.9296 92.8061 26.9531 93.8477 25.9765C96.8855 25.4771 98.9039 26.6816 99.9023 29.5898ZM9.47266 8.69133C9.73307 8.69133 9.9935 8.69133 10.2539 8.69133C10.2539 29.3945 10.2539 50.0976 10.2539 70.8007C7.58758 71.1249 5.30895 72.2316 3.41797 74.121C3.1901 54.8505 3.15756 35.5796 3.32031 16.3085C3.89898 12.573 5.94977 10.034 9.47266 8.69133ZM39.5508 47.9491C44.1443 53.6841 48.6365 59.5109 53.0273 65.4296C48.5355 65.5273 44.0434 65.5599 39.5508 65.5273C39.5508 59.6679 39.5508 53.8085 39.5508 47.9491ZM82.7148 77.4413C83.8867 77.4413 85.0586 77.4413 86.2305 77.4413C86.2305 78.6132 86.2305 79.7851 86.2305 80.957C85.0586 80.957 83.8867 80.957 82.7148 80.957C82.7148 79.7851 82.7148 78.6132 82.7148 77.4413Z" fill="#1D56EB"/>
<path opacity="0.949" fill-rule="evenodd" clip-rule="evenodd" d="M83.6914 8.49608C84.6139 8.31114 85.3625 8.57155 85.9375 9.27733C87.1476 12.1914 88.3195 15.1211 89.4531 18.0664C89.5834 39.4205 89.5834 60.7748 89.4531 82.1289C88.4285 84.1566 86.7683 84.9379 84.4726 84.4726C82.4842 84.8633 80.8892 84.2773 79.6875 82.7148C79.5078 82.2068 79.3775 81.6859 79.2969 81.1523C79.1666 60.3189 79.1666 39.4857 79.2969 18.6523C80.3646 15.7746 81.4715 12.91 82.6172 10.0586C82.8351 9.42272 83.1932 8.90188 83.6914 8.49608ZM84.2773 15.1367C84.4484 15.1111 84.5787 15.1763 84.668 15.332C85.0855 16.4545 85.5412 17.5613 86.0351 18.6523C84.9935 18.9127 83.9517 18.9127 82.9101 18.6523C83.4437 17.5066 83.8996 16.3347 84.2773 15.1367ZM82.7148 22.168C83.8867 22.168 85.0586 22.168 86.2305 22.168C86.2305 39.4857 86.2305 56.8033 86.2305 74.1211C85.0586 74.1211 83.8867 74.1211 82.7148 74.1211C82.7148 56.8033 82.7148 39.4857 82.7148 22.168ZM82.7148 77.4414C82.7148 78.6133 82.7148 79.7851 82.7148 80.957C83.8867 80.957 85.0586 80.957 86.2305 80.957C86.2305 79.7851 86.2305 78.6133 86.2305 77.4414C85.0586 77.4414 83.8867 77.4414 82.7148 77.4414Z" fill="#1D56EB"/>
<path opacity="0.939" fill-rule="evenodd" clip-rule="evenodd" d="M28.6128 15.3317C29.1636 15.2824 29.6843 15.3801 30.1753 15.6247C45.3831 35.3312 60.5199 55.0901 75.5855 74.9021C76.0095 75.714 75.9118 76.4628 75.2925 77.1482C59.6833 77.4726 44.0583 77.5376 28.4175 77.3435C28.138 77.2526 27.9103 77.0898 27.7339 76.8552C27.4097 56.7489 27.3447 36.6317 27.5386 16.5036C27.8042 16.0109 28.1622 15.6203 28.6128 15.3317ZM30.9566 22.363C44.1925 39.5521 57.4085 56.7722 70.605 74.0232C57.389 74.1208 44.1728 74.1534 30.9566 74.1208C30.9566 56.8683 30.9566 39.6155 30.9566 22.363ZM39.5503 47.9489C39.5503 53.8083 39.5503 59.6677 39.5503 65.5271C44.0429 65.5597 48.5351 65.5271 53.0269 65.4294C48.6361 59.5107 44.1439 53.6839 39.5503 47.9489Z" fill="#1D56EB"/>
<path opacity="0.918" fill-rule="evenodd" clip-rule="evenodd" d="M45.9961 25.6836C55.5016 25.651 65.0066 25.6836 74.5117 25.7813C75.7894 26.4242 76.0824 27.3682 75.3906 28.6133C75.1135 28.8008 74.8205 28.9635 74.5117 29.1016C65.0717 29.2319 55.6314 29.2319 46.1914 29.1016C45.2055 28.985 44.7496 28.4317 44.8242 27.4414C44.782 26.5451 45.1727 25.9592 45.9961 25.6836Z" fill="#1D56EB"/>
<path opacity="0.939" fill-rule="evenodd" clip-rule="evenodd" d="M37.2073 40.9182C38.2956 40.7367 39.1092 41.1273 39.6487 42.09C45.7212 50.133 51.8409 58.1408 58.0081 66.1135C58.4579 66.9998 58.3602 67.8137 57.7151 68.5549C50.8307 68.8777 43.9296 68.9428 37.012 68.7502C36.7841 68.5223 36.5563 68.2945 36.3284 68.0666C36.0059 59.4844 35.9409 50.8906 36.1331 42.2853C36.3163 41.6803 36.6745 41.2246 37.2073 40.9182ZM39.551 47.9494C39.551 53.8088 39.551 59.6682 39.551 65.5275C44.0436 65.5602 48.5358 65.5275 53.0276 65.4299C48.6368 59.5111 44.1446 53.6844 39.551 47.9494Z" fill="#1D56EB"/>
</g>
<defs>
<clipPath id="clip0_1_662">
<rect width="100" height="100" fill="white"/>
</clipPath>
</defs>
</svg>
