<svg width="100" height="101" viewBox="0 0 100 101" fill="none" xmlns="http://www.w3.org/2000/svg">
<g clip-path="url(#clip0_1_626)">
<path d="M41.0734 0.968742L40.5266 1.43749L40.468 4.38671L40.4094 7.33593H36.5227C34.3938 7.33593 32.4992 7.39452 32.3234 7.45312C31.5813 7.74609 31.4445 8.52734 31.4445 12.5117V16.3203H28.5539C24.4133 16.3203 24.8039 15.4609 24.8039 24.582V31.9258L17.3625 31.9844L9.9211 32.043L9.45235 32.5898L8.9836 33.1367V65.168V97.1797H7.28438C5.50703 97.1992 5.13594 97.3164 4.72578 98.0977C4.35469 98.7812 4.45235 99.3281 5.05782 99.9336L5.62422 100.5H49.9992H94.3742L94.9406 99.9336C95.5461 99.3281 95.6438 98.7812 95.2727 98.0977C94.8625 97.3164 94.4914 97.1992 92.7336 97.1797H91.0148V52.9414C91.0148 5.65624 91.0539 7.80468 90.1359 7.45312C89.9602 7.39452 82.4406 7.33593 73.4563 7.33593H57.0891L56.718 7.74609C56.3859 8.11718 56.3273 8.58593 56.2492 12.1992L56.1516 16.2226H54.4914H52.8313L52.7727 12.1992C52.7141 6.92577 53.1438 7.35546 47.8508 7.29687L43.8469 7.23827L43.7883 4.5039C43.7492 1.61327 43.6125 1.0664 42.8313 0.714836C42.1281 0.382805 41.6789 0.46093 41.0734 0.968742ZM49.4133 13.4883V16.3203L42.1477 16.2812L34.8625 16.2226L34.8039 13.4297L34.7453 10.6562H42.0891H49.4133V13.4883ZM87.6945 53.918V97.1797L81.5031 97.1406L75.2922 97.082L75.2531 74.1328C75.2141 57.3359 75.1359 51.0664 74.9797 50.7539C74.6867 50.207 73.7883 49.8359 73.2023 50.0117C72.4602 50.2461 72.0695 50.7148 71.9523 51.5156L71.8156 52.2578H70.2141H68.6125L68.4758 51.5156C68.1438 49.3672 65.4484 49.4844 65.1945 51.6719L65.1359 52.1602L62.3625 52.2187L59.5695 52.2773V31.457V10.6562H73.632H87.6945V53.918ZM56.2102 35.8906L56.1516 52.1602H49.9992H43.8469L43.7883 49.3672L43.7297 46.5937H46.425C49.3742 46.5937 49.9211 46.4375 50.3508 45.5391C50.6633 44.8945 50.5266 44.1719 49.9797 43.7031C49.6672 43.4297 49.0617 43.3516 46.718 43.2734L43.8469 43.1758L43.7883 40.3828L43.7297 37.6094H46.425C49.3742 37.6094 49.9211 37.4531 50.3508 36.5547C50.6633 35.9101 50.5266 35.1875 49.9797 34.7187C49.6672 34.4453 49.0617 34.3672 46.718 34.2891L43.8469 34.1914L43.7883 33.7031C43.7102 32.9414 43.3586 32.3945 42.8313 32.1601C42.5188 32.0234 40.0383 31.9453 35.2531 31.9453H28.1242V25.793V19.6406H42.1867H56.2492L56.2102 35.8906ZM40.4289 66.2227V97.1797H36.5422H32.6359L32.5773 93.1953C32.5188 89.2695 32.5188 89.1914 32.05 88.7031L31.5813 88.1953H26.4445C21.6984 88.1953 21.3078 88.2148 20.8781 88.5664C20.4094 88.9375 20.4094 89.0156 20.3117 93.0195L20.2141 97.082L16.2688 97.1406L12.3039 97.1797V66.3594C12.3039 49.4062 12.3625 35.4609 12.4406 35.4023C12.4992 35.3242 18.8273 35.2656 26.5031 35.2656H40.4289V66.2227ZM71.8742 76.3789V97.1797L57.8703 97.1406L43.8469 97.082L43.7883 76.3203L43.7492 55.5781H57.8117H71.8742V76.3789ZM29.257 94.2891L29.1984 97.082L28.6906 97.1406L28.1633 97.1992L28.1047 95.4414C28.0266 93.918 27.968 93.625 27.5578 93.1953C26.9719 92.5703 26.0344 92.5312 25.3703 93.0586C24.9602 93.3906 24.882 93.6445 24.8039 95.2656C24.7063 97.082 24.7063 97.082 24.1789 97.1406L23.632 97.1992V94.3672V91.5156H26.4641H29.3156L29.257 94.2891Z" fill="#1D56EB"/>
<path d="M65.7227 16.8087C65.2734 17.2384 65.2344 17.4337 65.2344 19.0548C65.2344 20.6759 65.2734 20.8712 65.7227 21.3009C66.5234 22.1212 67.7734 21.9064 68.3203 20.8712C68.6523 20.2658 68.6133 17.7853 68.2617 17.1212C67.7734 16.1642 66.5039 16.008 65.7227 16.8087Z" fill="#1D56EB"/>
<path d="M72.4978 16.7109C71.6579 17.4922 71.6384 20.4219 72.4587 21.3008C73.0837 21.9648 74.0603 21.9648 74.7048 21.3008C75.154 20.8711 75.1931 20.6758 75.1931 18.9961C75.1931 17.3359 75.154 17.1211 74.7438 16.75C74.1579 16.2031 73.0642 16.1836 72.4978 16.7109Z" fill="#1D56EB"/>
<path d="M79.1992 16.8087C78.75 17.2384 78.7109 17.4337 78.7109 19.0548C78.7109 20.6759 78.75 20.8712 79.1992 21.3009C80 22.1212 81.25 21.9064 81.7969 20.8712C82.1289 20.2658 82.0898 17.7853 81.7383 17.1212C81.25 16.1642 79.9805 16.008 79.1992 16.8087Z" fill="#1D56EB"/>
<path d="M66.1133 27.6878C65.3711 28.1175 65.2539 28.4886 65.2539 30.2855C65.2539 32.2386 65.4102 32.6097 66.3672 32.9417C66.8164 33.098 67.1094 33.0785 67.5195 32.8831C68.3594 32.4925 68.5742 31.8675 68.5156 30.0511C68.4766 28.7425 68.3789 28.3714 68.0664 28.0589C67.5781 27.5511 66.6211 27.3753 66.1133 27.6878Z" fill="#1D56EB"/>
<path d="M72.8516 27.7074C72.5977 27.8441 72.2656 28.1761 72.1289 28.43C71.8164 29.055 71.8164 31.516 72.1289 32.141C72.5 32.8636 73.3203 33.1957 74.0625 32.9417C75.0195 32.6097 75.1758 32.2191 75.1953 30.3441C75.1953 28.3519 75.1172 28.1175 74.3945 27.7464C73.7305 27.3949 73.4766 27.3949 72.8516 27.7074Z" fill="#1D56EB"/>
<path d="M79.5898 27.6874C78.8477 28.1171 78.7305 28.4882 78.7109 30.3046C78.7109 31.9452 78.75 32.1014 79.1992 32.5311C79.8633 33.1561 80.8984 33.1561 81.5039 32.5702C81.875 32.1991 81.9531 31.8671 81.9922 30.4022C82.0703 28.8397 82.0312 28.6444 81.6016 28.1757C81.0742 27.5702 80.1562 27.3358 79.5898 27.6874Z" fill="#1D56EB"/>
<path d="M65.7227 39.2695C65.2734 39.6992 65.2344 39.8945 65.2344 41.5156C65.2344 43.1367 65.2734 43.332 65.7227 43.7617C66.0352 44.0938 66.4062 44.25 66.8359 44.25C68.0859 44.2305 68.5547 43.4883 68.5547 41.5156C68.5547 39.543 68.0859 38.8008 66.8359 38.7812C66.4062 38.7812 66.0352 38.9375 65.7227 39.2695Z" fill="#1D56EB"/>
<path d="M72.6172 39.0547C72.1094 39.4258 71.875 40.2266 71.875 41.5156C71.875 43.4297 72.3828 44.2305 73.5938 44.25C74.0234 44.25 74.3945 44.0937 74.707 43.7617C75.1562 43.332 75.1953 43.1367 75.1953 41.5156C75.1953 39.8945 75.1562 39.6992 74.707 39.2695C74.1797 38.7227 73.1641 38.625 72.6172 39.0547Z" fill="#1D56EB"/>
<path d="M79.1992 39.2697C78.75 39.6994 78.7109 39.8947 78.7109 41.5158C78.7109 43.1369 78.75 43.3322 79.1992 43.7619C80 44.5822 81.25 44.3673 81.7969 43.3322C82.1289 42.7267 82.0898 40.2462 81.7383 39.5822C81.25 38.6251 79.9805 38.4689 79.1992 39.2697Z" fill="#1D56EB"/>
<path d="M79.5891 50.1485C79.3742 50.2657 79.1008 50.5196 78.9641 50.6758C78.632 51.086 78.632 54.4063 78.9641 54.8165C79.6476 55.7149 80.9367 55.7344 81.6398 54.8555C81.9523 54.4454 82.0305 54.0548 82.0305 52.7266C82.0305 51.3204 81.9719 51.0469 81.6008 50.6173C81.0734 50.0313 80.1555 49.8165 79.5891 50.1485Z" fill="#1D56EB"/>
<path d="M79.1992 61.7305C78.75 62.1602 78.7109 62.3555 78.7109 63.9766C78.7109 65.5977 78.75 65.793 79.1992 66.2227C79.9805 67.0235 81.25 66.8672 81.7383 65.9102C82.0898 65.2461 82.1289 62.7657 81.7969 62.1602C81.25 61.125 80 60.9102 79.1992 61.7305Z" fill="#1D56EB"/>
<path d="M79.8828 72.5117C79.7266 72.5703 79.3945 72.8047 79.1602 73.0195C78.75 73.3711 78.7109 73.6054 78.7109 75.1875C78.7305 77.0234 78.8477 77.3945 79.6289 77.8047C80.3125 78.1757 80.8594 78.0781 81.4844 77.4531C82.0703 76.8672 82.0703 76.8281 81.9922 75.1093C81.9531 73.6836 81.8555 73.2929 81.543 72.9804C81.1133 72.5507 80.332 72.3359 79.8828 72.5117Z" fill="#1D56EB"/>
<path d="M79.1992 84.1915C78.75 84.6211 78.7109 84.8165 78.7109 86.4375C78.7109 88.0586 78.75 88.254 79.1992 88.6836C79.9805 89.4844 81.25 89.3282 81.7383 88.3711C82.0898 87.7071 82.1289 85.2266 81.7969 84.6211C81.25 83.586 80 83.3711 79.1992 84.1915Z" fill="#1D56EB"/>
<path d="M34.2176 25.7539C33.7293 26.2617 33.6512 27.3555 34.0614 27.8828C34.5692 28.5664 35.2918 28.625 42.245 28.625C49.6668 28.625 49.8817 28.5859 50.3504 27.5703C50.6825 26.9258 50.5262 26.2227 49.9598 25.6953C49.5497 25.3242 49.2957 25.3047 42.0887 25.3047H34.6278L34.2176 25.7539Z" fill="#1D56EB"/>
<path d="M18.7883 43.4101C18.0461 43.703 17.636 46.7694 18.2024 47.8241C18.7492 48.8593 19.9992 49.0741 20.8 48.2538C21.2492 47.8241 21.2883 47.6288 21.2883 46.0077C21.2883 44.3866 21.2492 44.1913 20.8 43.7616C20.3508 43.2929 19.4524 43.1366 18.7883 43.4101Z" fill="#1D56EB"/>
<path d="M25.293 43.7617C24.8438 44.1914 24.8047 44.3867 24.8047 46.0078C24.8047 47.6289 24.8438 47.8242 25.293 48.2539C25.6055 48.5859 25.9766 48.7422 26.4062 48.7422C27.6172 48.7227 28.125 47.9219 28.125 46.0078C28.125 44.0938 27.6172 43.293 26.4062 43.2734C25.9766 43.2734 25.6055 43.4297 25.293 43.7617Z" fill="#1D56EB"/>
<path d="M32.207 43.5273C31.6406 43.957 31.4453 44.6016 31.4453 46.0078C31.4453 47.9805 31.9141 48.7227 33.1641 48.7422C33.5938 48.7422 33.9648 48.5859 34.2773 48.2539C34.7266 47.8242 34.7656 47.6289 34.7656 46.0078C34.7656 44.3867 34.7266 44.1914 34.2773 43.7617C33.75 43.2344 32.7344 43.1172 32.207 43.5273Z" fill="#1D56EB"/>
<path d="M19.0234 54.6019C18.2227 54.9144 17.9688 55.5589 17.9688 57.2581C17.9688 58.5472 18.0469 58.9378 18.3594 59.348C19.0625 60.2269 20.3516 60.2073 21.0352 59.3089C21.3672 58.8987 21.3672 55.5784 21.0352 55.1683C20.5273 54.5042 19.7852 54.2894 19.0234 54.6019Z" fill="#1D56EB"/>
<path d="M25.6836 54.6409C24.9414 55.0706 24.8242 55.4417 24.8047 57.2581C24.8047 58.762 24.8633 59.0745 25.1953 59.4456C25.7227 60.012 26.4258 60.1683 27.0703 59.8362C27.9297 59.4456 28.1445 58.8206 28.0859 57.0042C28.0469 55.6956 27.9492 55.3245 27.6367 55.012C27.1484 54.5042 26.1914 54.3284 25.6836 54.6409Z" fill="#1D56EB"/>
<path d="M32.4219 54.6605C31.7188 55.012 31.4453 55.7152 31.4453 57.2386C31.4453 58.8011 31.7188 59.4652 32.5 59.8362C33.1445 60.1683 33.8477 60.012 34.375 59.4456C34.707 59.0745 34.7656 58.762 34.7656 57.2581C34.7461 55.4222 34.6289 55.0511 33.8477 54.6409C33.3203 54.348 33.0273 54.348 32.4219 54.6605Z" fill="#1D56EB"/>
<path d="M18.7305 65.9881C18.1641 66.4178 17.9688 67.0623 17.9688 68.4686C17.9688 69.9139 18.2812 70.8709 18.8477 71.0858C19.5312 71.3397 20.332 71.203 20.8008 70.7147C21.25 70.285 21.2891 70.0897 21.2891 68.4686C21.2891 66.8475 21.25 66.6522 20.8008 66.2225C20.2734 65.6952 19.2578 65.578 18.7305 65.9881Z" fill="#1D56EB"/>
<path d="M25.293 66.2228C24.8438 66.6525 24.8047 66.8478 24.8047 68.5275C24.8047 70.1877 24.8438 70.4025 25.2539 70.7736C25.8398 71.3205 26.9336 71.34 27.5 70.8127C28.3398 70.0314 28.3594 67.1018 27.5391 66.2228C26.9141 65.5588 25.9375 65.5588 25.293 66.2228Z" fill="#1D56EB"/>
<path d="M32.207 65.9881C31.6406 66.4178 31.4453 67.0623 31.4453 68.4686C31.4453 69.9139 31.7578 70.8709 32.3242 71.0858C33.0078 71.3397 33.8086 71.203 34.2773 70.7147C34.7266 70.285 34.7656 70.0897 34.7656 68.4686C34.7656 66.8475 34.7266 66.6522 34.2773 66.2225C33.75 65.6952 32.7344 65.578 32.207 65.9881Z" fill="#1D56EB"/>
<path d="M18.9453 77.1209C18.2227 77.492 17.9688 78.1756 17.9688 79.8553C17.9688 81.3006 18.0078 81.4178 18.5352 81.9646C19.1406 82.5701 19.6875 82.6678 20.3711 82.2967C21.1523 81.8865 21.2695 81.5154 21.2891 79.6795C21.2891 78.0975 21.25 77.8631 20.8594 77.492C20.2734 76.9646 19.5508 76.8084 18.9453 77.1209Z" fill="#1D56EB"/>
<path d="M25.8008 77.0822C24.9609 77.4142 24.8242 77.8244 24.8047 79.7384C24.8047 81.3009 24.8633 81.6134 25.1953 81.9455C26.0156 82.7658 27.3633 82.5705 27.8711 81.5548C28.2031 80.8908 28.1836 78.547 27.8516 77.8634C27.6953 77.5705 27.3438 77.2384 27.0508 77.1017C26.4648 76.8283 26.4258 76.8283 25.8008 77.0822Z" fill="#1D56EB"/>
<path d="M32.4219 77.1211C32.168 77.2578 31.8359 77.5899 31.6992 77.8438C31.3867 78.4688 31.3867 80.9297 31.6992 81.5547C32.2461 82.6289 33.5352 82.8047 34.375 81.9063C34.707 81.5352 34.7656 81.2227 34.7656 79.6992C34.7656 78.0977 34.7266 77.8633 34.3359 77.4922C33.75 76.9649 33.0273 76.8086 32.4219 77.1211Z" fill="#1D56EB"/>
<path d="M50.3907 59.1527C49.3946 59.6605 49.4141 59.2504 49.4141 76.3402C49.4141 93.2933 49.4141 93.1957 50.293 93.5472C50.9961 93.8011 51.8946 93.6644 52.3047 93.2152L52.7344 92.766V76.3597C52.7149 59.0355 52.7539 59.6214 51.8164 59.1332C51.2891 58.8402 50.9961 58.8402 50.3907 59.1527Z" fill="#1D56EB"/>
<path d="M57.2461 59.1131C56.2305 59.5233 56.2695 58.8006 56.25 76.3006C56.25 92.5311 56.25 92.6288 56.6602 93.1561C57.4219 94.1327 59.1602 93.703 59.4727 92.453C59.5312 92.1991 59.5508 84.7772 59.5312 75.9491C59.4727 60.1874 59.4727 59.8749 59.082 59.5038C58.5938 59.0155 57.8516 58.8592 57.2461 59.1131Z" fill="#1D56EB"/>
<path d="M63.8672 59.1527C62.8711 59.6605 62.8907 59.2504 62.8907 76.3402C62.8907 93.2933 62.8907 93.1957 63.7696 93.5472C64.4727 93.8011 65.3711 93.6644 65.7813 93.2152L66.211 92.766V76.3597C66.1914 59.0355 66.2305 59.6214 65.293 59.1332C64.7657 58.8402 64.4727 58.8402 63.8672 59.1527Z" fill="#1D56EB"/>
</g>
<defs>
<clipPath id="clip0_1_626">
<rect width="100" height="100" fill="white" transform="translate(0 0.5)"/>
</clipPath>
</defs>
</svg>
