<svg width="285" height="285" viewBox="0 0 285 285" fill="none" xmlns="http://www.w3.org/2000/svg">
<g opacity="0.5" clip-path="url(#clip0_1_777)">
<path d="M44.9931 48.5066C40.7805 50.2922 34.9243 54.3476 31.6739 57.7986C27.7092 61.9102 23.5994 69.1567 22.0851 74.5351C17.0282 92.778 25.1944 111.7 41.9417 120.629C47.9642 123.847 56.186 125.819 61.74 125.363L63.4415 125.235L64.1538 127.718C64.5611 129.064 66.1584 134.499 67.7643 139.792C70.5366 149.088 70.6742 149.427 71.9186 150.219C73.5514 151.236 75.3522 151.129 76.8598 149.927C77.478 149.433 83.6097 141.504 90.3792 132.278L102.738 115.55L107.859 114.178L113.024 112.794L115.123 116.078C119.121 122.419 125.48 126.72 132.834 128.08C135.062 128.515 137.99 128.763 139.33 128.685C140.9 128.593 149.131 126.575 162.131 123.092L182.483 117.638L197.258 122.358C205.358 124.925 212.55 127.08 213.189 127.19C214.973 127.369 216.539 126.386 217.377 124.613C218.088 123.063 218.073 122.832 216.29 116.179C215.282 112.415 214.565 109.042 214.67 108.732C214.775 108.423 215.76 107.549 216.88 106.826C223.588 102.449 228.047 94.4051 228.606 85.8114C228.763 82.7202 228.583 81.1734 227.677 77.6164C226.328 72.5831 224.752 69.6749 221.315 65.9516C216.691 60.9514 209.656 57.6294 202.901 57.2814C200.151 57.1737 199.489 56.9761 199.599 56.3367C199.624 55.9076 199.172 53.1674 198.473 50.2114C197.593 46.2253 196.864 44.0283 195.588 41.3679C188.671 27.4591 174.732 18.8565 158.991 18.7586C155.473 18.7628 154.049 19.0505 137.458 23.3086C125.036 26.4962 119.25 28.1873 118.194 28.7986C114.779 30.9334 116.026 36.4631 119.999 36.759C121 36.8191 127.219 35.3406 138.467 32.3265C153.874 28.1984 155.735 27.7934 159.01 27.7602C169.34 27.6195 179.34 32.7271 185.22 41.1906C188.012 45.1335 190.074 50.7264 190.523 55.2034L190.848 58.869L158.299 67.8251L125.75 76.7811L123.175 78.55C115.429 83.9562 110.929 92.1986 110.742 101.303L110.722 104.029L104.737 105.679C101.466 106.603 98.3501 107.578 97.8601 107.85C97.3818 108.166 92.445 114.602 86.8236 122.16C81.2022 129.718 76.4608 136.008 76.2654 136.154C76.07 136.3 74.7753 132.519 73.1984 126.984L70.5222 117.521L68.7377 116.639C67.7067 116.118 66.5155 115.874 65.7277 116.085C63.4955 116.683 57.3482 116.501 53.906 115.734C47.3076 114.219 41.5008 110.755 37.0406 105.664C33.3636 101.395 31.5202 97.6672 30.2348 91.8194C28.4943 83.748 29.5403 77.3224 33.8017 69.9414C36.5572 65.1687 39.4723 62.0421 43.8177 59.0013C46.3171 57.2995 46.9619 57.0798 65.2423 51.9471L84.1354 46.6501L85.0005 45.1517C86.2063 42.9991 85.5261 40.4605 83.4056 39.1992L81.9072 38.3341L64.6944 42.8993C55.2724 45.377 46.3789 47.9008 44.9931 48.5066ZM197.486 66.6602C202.505 65.7844 205.898 66.189 209.478 67.9973C214.811 70.7434 218.182 75.0942 219.333 80.7904C220.29 85.4127 219.746 88.9831 217.41 93.2211C215.426 96.8487 212.852 99.3211 209.036 101.188C207.499 101.928 206.056 103.019 205.508 103.775C204.66 104.988 204.698 105.306 205.887 110.617L207.134 116.146L195.101 112.381L183.1 108.56L162.441 114.095C150.842 117.203 140.772 119.714 139.433 119.791C133.867 120.204 127.79 117.657 123.935 113.248C120.024 108.808 118.656 101.95 120.438 96.1714C122.098 90.9885 125.885 86.7371 130.719 84.6443C134.004 83.2481 191.93 67.633 197.486 66.6602Z" fill="#1D56EB"/>
<path d="M142.136 96.2679C140.64 97.5131 140.321 98.7715 140.919 101.004C142.009 105.074 148.194 104.871 149.059 100.746C149.529 98.6496 148.967 97.2521 147.267 96.1596C145.345 94.9389 143.763 94.9875 142.136 96.2679Z" fill="#1D56EB"/>
<path d="M167.483 89.1478C165.902 89.8998 165.049 92.1454 165.577 94.115C165.964 95.5593 166.368 96.0142 167.831 96.748C168.917 97.3013 170.053 97.513 170.885 97.2902C171.716 97.0673 172.594 96.3161 173.258 95.2938C175.787 91.4262 171.725 87.1199 167.483 89.1478Z" fill="#1D56EB"/>
<path d="M192.028 82.7118C190.856 83.5888 189.907 86.0009 190.248 87.2702C190.693 88.9334 192.312 90.423 193.921 90.6487C197.027 91.0361 199.431 88.2808 198.634 85.3045C198.083 83.2474 197.089 82.3408 195.183 82.0542C193.288 81.8113 193.157 81.8464 192.028 82.7118Z" fill="#1D56EB"/>
<path d="M97.9546 34.503C95.2372 36.9668 96.4303 41.2444 100.08 41.9085C103.431 42.5116 105.915 39.8758 105.024 36.5494C104.167 33.3543 100.456 32.2846 97.9546 34.503Z" fill="#1D56EB"/>
<path d="M70.9272 180.836C64.2972 184.63 58.661 191.957 56.8365 199.154C54.5824 208.249 56.9851 218.441 63.0939 225.483C64.5174 227.119 65.5523 228.53 65.4007 228.665C63.4234 230.039 59.8065 234.573 57.6278 238.347C54.5081 243.686 53.3689 247.838 53.2388 253.831C53.1993 257.36 53.3932 258.434 56.3603 269.507L59.5503 281.412L61.1042 282.309L62.6143 283.218L103.1 272.37L143.586 261.522L144.439 259.98L145.348 258.47L143.04 249.331C138.717 232.147 135.377 226.334 126.377 220.583C123.155 218.537 117.435 216.27 114.781 215.996C114.066 215.953 113.491 215.732 113.519 215.49C113.56 215.291 113.824 214.001 114.141 212.556C116.045 204.258 113.453 193.882 107.826 187.415C98.5665 176.667 83.0992 173.915 70.9272 180.836ZM83.992 185.826C87.7804 185.609 91.3891 186.471 95.1042 188.431C103.478 192.896 107.437 201.545 105.44 210.9C102.883 222.89 89.6491 230.048 78.2749 225.59C66.1707 220.859 61.2361 207.17 67.6677 196.158C71.2359 190.042 77.2938 186.214 83.992 185.826ZM75.5268 234.067C76.1638 234.694 83.6141 235.888 86.5037 235.817C90.0529 235.757 96.8019 233.808 99.9695 231.974C102.647 230.412 105.683 227.91 107.397 225.903C108.591 224.41 109.566 224.196 112.707 224.714C117.843 225.496 123.266 228.406 126.616 232.152C129.617 235.476 130.715 237.997 133.025 246.619L135.172 254.629L100.813 263.835L66.455 273.042L64.3088 265.032C61.9046 256.059 61.6856 253.491 62.8325 248.493C63.2333 246.837 64.3508 244.005 65.3878 242.272C68.2191 237.433 74.0862 232.717 75.5268 234.067Z" fill="#1D56EB"/>
<path d="M208.798 143.894C201.08 148.354 195.521 156.317 194.215 164.924C192.926 173.244 196.02 183.392 201.661 189.386C203.607 191.398 203.85 192.13 202.712 192.435C201.531 192.752 196.719 198.779 194.951 202.161C191.617 208.45 190.535 214.744 191.545 221.838C191.822 223.922 193.274 229.866 194.757 235.051L197.433 244.514L198.975 245.367L200.486 246.276L240.971 235.428L281.457 224.58L282.311 223.037L283.208 221.484L280.018 209.579C277.051 198.505 276.682 197.478 274.883 194.442C271.774 189.317 268.712 186.291 263.34 183.227C259.555 181.004 254.068 178.909 251.767 178.728C251.525 178.699 251.707 177.102 252.049 175.228C253.013 170.42 252.897 166.838 251.596 161.98C249.493 153.959 245.278 148.38 238.119 144.247C233.556 141.576 229.976 140.471 224.704 140.054C220.533 139.717 212.727 141.574 208.798 143.894ZM222.654 148.859C230.147 148.635 237.504 152.808 241.231 159.363C246.668 168.977 243.254 181.619 233.719 187.176C220.199 195.021 202.844 185.223 202.714 169.683C202.716 165.836 203.733 162.28 205.959 158.681C209.734 152.462 215.535 149.078 222.654 148.859ZM214.172 197.387C216.35 198.163 221.386 198.925 224.375 198.875C227.924 198.815 234.629 196.878 237.841 195.032C240.518 193.47 245.461 189.331 245.731 188.414C246.034 187.442 248.152 187.296 251.758 187.972C258.131 189.173 264.129 193.524 267.402 199.261C268.388 201.014 269.349 203.9 270.897 209.677L273.043 217.687L238.684 226.893L204.326 236.099L202.18 228.09C200.632 222.312 200.021 219.333 199.998 217.322C199.943 210.112 203.568 202.808 209.29 198.601C211.603 196.902 212.347 196.703 214.172 197.387Z" fill="#1D56EB"/>
</g>
<defs>
<clipPath id="clip0_1_777">
<rect width="232" height="232" fill="white" transform="translate(0 60.0459) rotate(-15)"/>
</clipPath>
</defs>
</svg>
