<svg width="98" height="100" viewBox="0 0 98 100" fill="none" xmlns="http://www.w3.org/2000/svg">
<path d="M35.31 0.292969C34.4506 0.761719 34.3139 1.40625 34.392 4.98047L34.4506 8.24219L34.9975 8.71094C35.3686 9.02344 35.7787 9.17969 36.3061 9.17969C36.8334 9.17969 37.2436 9.02344 37.6147 8.71094L38.1615 8.24219L38.2201 4.98047C38.2983 1.36719 38.1615 0.742188 37.2631 0.292969C36.5795 -0.078125 35.974 -0.0585938 35.31 0.292969Z" fill="#1D56EB"/>
<path d="M8.16073 7.20703C7.55526 7.83203 7.41854 8.67188 7.8287 9.43359C8.12167 10 11.6373 14.2578 12.1646 14.6875C12.399 14.8828 12.9068 15.0391 13.317 15.0391C14.7428 15.0391 15.6607 13.4961 14.9771 12.2461C14.5865 11.5039 10.8951 7.14844 10.4459 6.89453C9.7037 6.46484 8.78573 6.58203 8.16073 7.20703Z" fill="#1D56EB"/>
<path d="M63.6303 7.01172C62.9076 7.57813 59.2748 12.0703 59.0991 12.6172C58.7084 13.75 59.6264 15.0391 60.8178 15.0391C61.2084 15.0391 61.6772 14.9609 61.8725 14.8438C62.0678 14.7461 63.2201 13.4766 64.4116 12.0117C66.3647 9.60938 66.5795 9.27734 66.5795 8.57422C66.5795 7.01172 64.8022 6.07422 63.6303 7.01172Z" fill="#1D56EB"/>
<path d="M32.4967 13.4961C30.4263 13.7109 27.4576 14.3555 25.1724 15.0781C22.8287 15.8203 18.6295 17.8125 16.6373 19.1406C13.0045 21.5625 8.92244 25.3906 8.66853 26.6016C8.39509 27.8125 9.37166 28.9062 10.7193 28.9062C11.2076 28.9062 11.6568 28.5547 13.4342 26.7969C16.5982 23.6719 19.8013 21.4844 23.6295 19.8438C39.3131 13.125 57.3795 19.7461 65.0553 35.0391C68.5904 42.0703 69.3912 50.1562 67.3209 57.8711C66.8717 59.5898 66.8326 59.6289 64.9381 59.8633C63.4342 60.0391 60.231 60.957 58.3951 61.6992L56.9498 62.3047H50.2896C46.6373 62.3047 42.9654 62.4023 42.1646 62.5C36.2467 63.2617 32.692 69.6289 35.231 74.9023C35.4849 75.4297 35.6607 75.8984 35.6021 75.957C35.5631 75.9961 29.9576 74.4531 23.1607 72.5195L10.817 68.9844L9.68416 67.3633C5.15291 60.8594 3.27791 52.3242 4.5865 44.1602C4.97713 41.6992 4.48884 40.8203 2.75056 40.8203C1.22713 40.8203 0.738844 42.0312 0.348219 46.7773C-0.0228751 51.4062 0.582594 56.1328 2.12556 60.8008C2.96541 63.3203 4.44978 66.4844 5.66072 68.3594C6.09041 69.0234 6.42244 69.5898 6.38338 69.6094C6.34431 69.6289 5.85603 69.9414 5.28963 70.293C3.27791 71.5625 1.93025 73.6523 1.52009 76.1328C0.973219 79.3945 2.86775 83.1641 5.81697 84.6484C7.04744 85.2734 36.0709 95.332 38.2388 95.8984C40.9342 96.582 43.4732 96.875 46.7935 96.875C49.7232 96.875 50.9342 96.7383 63.3365 95.0195C73.9029 93.5547 77.1842 93.1641 78.981 93.1641H81.2271V95.8008C81.2271 97.4219 81.3248 98.6133 81.4615 98.9258C81.9303 99.9609 82.1842 100 89.606 100H96.4615L97.0865 99.4336L97.731 98.8672L97.7896 82.6758C97.8287 66.7773 97.8287 66.4844 97.4381 65.8594C97.2232 65.5078 96.8131 65.1367 96.5396 65.0391C96.2662 64.9219 93.3951 64.8438 89.8013 64.8438H83.5709L81.0709 63.4766C78.1021 61.8555 75.1724 60.6641 72.7506 60.1172C71.774 59.8828 70.9537 59.6875 70.9342 59.6875C70.9146 59.668 71.0709 59.0039 71.2662 58.2031C73.356 50.0781 72.4381 41.2305 68.7271 33.6719C62.0279 19.9609 47.5943 11.9141 32.4967 13.4961ZM70.6803 63.6719C72.8287 64.0234 75.1529 64.8438 78.1998 66.4062L81.1295 67.8711L81.1881 78.5742L81.2271 89.2578H78.8443C76.9107 89.2578 74.1373 89.5898 63.7662 91.0352C52.7701 92.5781 50.5826 92.832 47.5943 92.9102C44.0592 93.0078 41.8912 92.793 39.0006 92.0703C36.7154 91.4844 7.57478 81.2695 7.06697 80.8594C6.28572 80.2539 5.66072 79.2383 5.42634 78.1641C4.93806 76.0547 6.32478 73.75 8.51228 73.125C9.13728 72.9492 9.84041 72.8711 10.231 72.9297C10.5826 73.0078 16.2467 74.5898 22.8092 76.4648L34.7232 79.8828H46.2662H57.8287L58.3951 79.3164C59.0006 78.7109 59.1568 77.6953 58.7662 76.9336C58.2584 76.0156 57.9068 75.9766 49.9381 75.9766C45.3873 75.9766 42.1646 75.8984 41.7349 75.7812C40.6412 75.4688 39.4107 74.4336 38.8638 73.3398C38.4732 72.5781 38.356 72.0898 38.356 71.0938C38.3756 69.5898 38.8443 68.5547 39.9381 67.5781C41.3834 66.3086 41.2662 66.3281 50.0748 66.1914L58.0826 66.0938L60.524 65.1562C64.4498 63.6523 67.5943 63.2031 70.6803 63.6719ZM93.9224 82.4219V96.0938H89.5279H85.1334V82.4219V68.75H89.5279H93.9224V82.4219Z" fill="#1D56EB"/>
<path d="M17.7305 32.0117C15.6211 32.6953 13.9414 34.3164 13.1406 36.4258C12.8086 37.3242 12.7695 38.0078 12.7695 44.5313V51.6602L13.4141 52.9688C14.1367 54.4336 15.4648 55.7617 16.8906 56.4258C18.1992 57.0508 20.8555 57.3438 22.9258 57.0898C26.7344 56.6211 29.1172 54.3945 29.6836 50.7813C29.8203 49.8633 29.8594 47.2266 29.8203 43.3789C29.7422 37.7344 29.7227 37.3438 29.293 36.2891C28.6875 34.7266 27.2227 33.1836 25.6016 32.3828C24.3516 31.7578 24.2148 31.7383 21.5586 31.6992C19.3125 31.6406 18.6289 31.6992 17.7305 32.0117ZM24.0781 35.9961C25.0156 36.5234 25.543 37.207 25.7578 38.2031C26.0312 39.3164 25.9922 49.6484 25.7383 50.6836C25.25 52.6172 23.4727 53.4766 20.4453 53.2617C18.2969 53.0859 17.4961 52.6172 16.8711 51.1133C16.6367 50.5273 16.5781 49.3555 16.5781 44.3555C16.5781 40.5469 16.6562 38.1055 16.793 37.7539C17.0664 37.0313 17.9062 36.1523 18.6289 35.8203C19 35.6641 19.9766 35.5664 21.2656 35.5664C23.043 35.5469 23.4141 35.6055 24.0781 35.9961Z" fill="#1D56EB"/>
<path d="M38.1802 32.4219C35.6998 33.3984 34.1959 36.1524 34.7427 38.75C35.4459 42.1875 39.3326 44.1602 42.4771 42.6953C46.1881 40.957 46.9302 36.2305 43.9029 33.5156C42.2818 32.0508 40.1529 31.6602 38.1802 32.4219ZM41.3052 36.4063C42.4576 37.3828 41.7349 39.2578 40.2115 39.2578C38.6881 39.2578 37.9654 37.3828 39.1177 36.4063C39.4107 36.1524 39.899 35.9375 40.2115 35.9375C40.524 35.9375 41.0123 36.1524 41.3052 36.4063Z" fill="#1D56EB"/>
<path d="M4.82168 32.5391C3.14199 33.4375 3.84512 36.1328 5.73965 36.1328C7.67324 36.1328 8.3373 33.3984 6.61855 32.5195C5.91543 32.1484 5.50527 32.168 4.82168 32.5391Z" fill="#1D56EB"/>
<path d="M46.5193 43.3984C40.699 49.2188 35.8357 54.2188 35.699 54.5312C35.2107 55.7422 36.1286 57.0312 37.5154 57.0312H38.3552L49.1755 46.2109L59.9958 35.3906L59.8786 34.5312C59.7224 33.418 59.0388 32.8125 57.9255 32.8125H57.1052L46.5193 43.3984Z" fill="#1D56EB"/>
<path d="M54.1376 47.0899C49.7235 47.9492 48.0829 53.3594 51.286 56.5625C53.8446 59.1406 58.2587 58.4766 60.036 55.2539C60.5634 54.3164 60.622 54.0235 60.622 52.5391C60.622 51.211 60.5243 50.7227 60.1923 50.0977C59.0204 47.9102 56.4618 46.6406 54.1376 47.0899ZM56.4228 51.5235C56.6376 51.7774 56.8134 52.2656 56.8134 52.5781C56.8134 53.3203 55.8759 54.2969 55.1532 54.2969C54.4306 54.2969 53.4931 53.3203 53.4931 52.5781C53.4931 51.0156 55.4657 50.293 56.4228 51.5235Z" fill="#1D56EB"/>
</svg>
