<svg width="285" height="285" viewBox="0 0 285 285" fill="none" xmlns="http://www.w3.org/2000/svg">
<g opacity="0.5" clip-path="url(#clip0_1_790)">
<path d="M103.193 32.865C76.2756 42.7045 54.4182 61.274 40.84 85.8814C36.7537 93.2155 34.5531 98.3086 31.9589 106.134C21.9078 136.552 25.1442 170.164 40.7965 198.292C47.1879 209.714 54.8585 219.434 64.2674 227.937C66.2981 229.738 67.9756 231.446 68.0459 231.709C68.1163 231.972 68.1785 237.631 68.1807 244.292C68.1473 265.176 68.087 263.551 69.2446 265.07C69.9521 265.959 70.84 266.472 71.964 266.64C73.8586 266.883 72.4205 267.643 90.4902 257.172C96.2596 253.844 101.192 251.068 101.455 250.998C101.717 250.927 104.036 251.526 106.611 252.384C145.955 265.109 189.956 255.477 220.317 227.499C246.099 203.796 259.955 169.544 257.649 135.026C257.077 125.891 256.307 121.265 253.856 112.118C249.751 96.7988 243.627 84.2727 234.062 71.6835C228.396 64.1947 218.925 54.5827 216.001 53.3019C213.034 52.0328 209.844 54.4826 210.207 57.763C210.32 59.2339 210.814 59.8521 214.431 63.1986C229.673 77.363 240.041 94.5221 245.365 114.393C251.499 137.284 249.876 161.69 240.798 183.309C223.59 224.135 183.654 249.988 139.21 249.043C129.26 248.848 117.275 246.665 107.458 243.29C104.518 242.296 101.624 241.476 101.02 241.497C100.36 241.486 95.349 244.143 88.6112 248.059C82.3517 251.66 77.2239 254.582 77.1246 254.561C77.0574 254.486 77.024 248.584 77.0125 241.363C77.0353 233.569 76.83 227.901 76.4907 227.335C76.207 226.801 74.0504 224.705 71.7187 222.656C45.3925 199.687 31.8835 165.028 35.7064 130.274C38.5187 104.705 51.1394 80.0256 70.1847 62.8663C77.3632 56.3925 84.3158 51.5272 92.466 47.2793C100.572 43.0432 103.685 41.8807 114.452 38.9956C125.263 36.0989 128.497 35.5609 137.766 35.1411C149.409 34.6485 162.485 36.352 173.986 39.8847C178.903 41.4287 179.686 41.5474 181.016 40.9095C184.289 39.4695 184.594 35.3536 181.594 33.4366C177.373 30.8147 161.067 27.209 149.811 26.5191C137.168 25.7315 127.126 26.5929 114.57 29.6289C110.639 30.5414 105.542 32.0011 103.193 32.865Z" fill="#1D56EB"/>
<path d="M195.223 41.9346C192.739 43.8669 192.968 47.6991 195.676 49.2253C196.797 49.9099 197.624 50.0169 198.937 49.665C204.014 48.3046 202.633 40.6998 197.365 41.1731C196.641 41.2732 195.646 41.5867 195.223 41.9346Z" fill="#1D56EB"/>
<path d="M116.135 72.4142C102.476 78.5134 92.663 90.3844 89.6035 104.527C88.3378 110.308 88.2951 113.65 89.5193 117.168C91.1361 121.802 94.5402 124.877 99.4191 126.103C101.825 126.678 102.473 126.645 106.237 125.636C109.738 124.698 110.654 124.265 112.007 123.011C114.593 120.583 116.037 117.569 116.986 112.53C118.488 104.481 122.379 99.9197 129.315 97.9674C132.017 97.1966 133.126 97.1339 135.485 97.5339C143.356 98.8963 149.451 104.487 150.513 111.427C151.078 114.935 150.286 119.51 148.62 122.395C147.948 123.561 145.75 126.214 143.794 128.192C133.733 138.441 129.774 152.027 133.035 164.898C134.073 169.123 134.451 170.007 135.831 171.654C141.855 178.906 153.223 178.44 158.567 170.722C160.519 167.854 161.294 163.565 160.577 159.488C160.197 157.197 160.189 155.417 160.622 153.706C161.185 151.256 161.733 150.5 167.803 144.089C170.773 140.994 175.279 133.125 176.794 128.45C178.225 123.986 179.027 118.751 179.114 113.474C179.14 110.418 178.814 108.676 177.137 102.417C175.307 95.589 174.93 94.705 172.929 91.4413C168.762 84.8176 163.856 79.9869 157.015 75.8153C149.73 71.3874 141.248 68.9691 133.037 68.9643C129.333 68.9717 119.233 71.0211 116.135 72.4142ZM133.132 77.8988C144.67 77.7157 157.045 84.1573 163.825 93.8806C169.591 102.093 171.368 110.999 169.314 121.542C167.797 129.36 164.485 135.033 157.167 142.388C152.477 147.116 150.686 153.038 151.71 160.363C152.258 164.157 151.894 165.427 149.801 167.067C147.707 168.707 144.501 168.299 142.905 166.194C141.625 164.566 140.5 158.441 140.743 154.623C141.175 146.955 144.436 140.217 150.736 133.791C159.056 125.275 161.497 116.177 158.061 105.98C156.625 101.674 154.774 98.7922 151.271 95.6966C140.912 86.2753 126.248 86.1703 116.247 95.4174C112.177 99.1351 109.48 104.127 108.393 110.047C107.433 115.043 106.343 116.929 104.067 117.539C102.492 117.961 99.9044 117.06 98.6389 115.663C97.2507 114.159 97.1145 112.6 98.0137 107.903C99.8668 97.8363 105.257 89.59 113.56 83.9876C119.352 80.0431 126.066 77.9627 133.132 77.8988Z" fill="#1D56EB"/>
<path d="M148.359 189.173C145.895 191.006 143.797 194.383 143.063 197.77C142.276 201.311 143.56 206.455 145.916 209.296C151.818 216.44 162.76 216.135 168.274 208.7C172.972 202.421 171.285 192.975 164.695 188.689C161.117 186.364 158.174 185.886 153.849 186.904C151.156 187.532 149.846 188.071 148.359 189.173ZM159.821 196.235C161.521 197.327 161.746 197.642 161.996 199.451C163.011 206.216 153.691 208.197 151.92 201.588C151.369 199.531 151.7 198.317 153.114 196.765C154.863 194.889 157.387 194.682 159.821 196.235Z" fill="#1D56EB"/>
</g>
<defs>
<clipPath id="clip0_1_790">
<rect width="232" height="232" fill="white" transform="translate(0 60.0459) rotate(-15)"/>
</clipPath>
</defs>
</svg>
